<?xml version="1.0" encoding="UTF-8" standalone="no"?>
<svg xmlns="http://www.w3.org/2000/svg" width="500" height="500" version="1.1">

<style type="text/css">
	text {
		font-family: 'Liberation Sans', sans-serif;
		font-size: 15px;
		fill: black;
		stroke: none;
		text-anchor:middle;
		}
		
	path, line {stroke:black;stroke-width:2;}
	
	.axis {marker-end:url(#arrow);}
</style>

<defs>
	<marker id="arrow" markerWidth="8" markerHeight="6" refX="5" refY="3" orient="auto">
		<polygon points="0,6 8,3 0,0 2,3" style="fill:#000;stroke:none;"/>
	</marker>
</defs>

<polygon id="B" points="50,450 450,50 450,450" style="fill:#80b3ff;" />

<path id="A" d="M50 450 L 450 50 A400 400 0 0 1 50 450 Z" style="fill:#b0c4d6;"/>

<line class="axis" x1="50" y1="450" x2="446" y2="450"/>
<line class="axis" x1="450" y1="450" x2="450" y2="54"/>

<!-- Axis labels --> 
<text x="250" y="490">Cumulative share of people from lowest to highest incomes</text>
<text x="450" y="470">100%</text>
<text x="250" y="475" dominant-baseline="central" transform="rotate(-90,250,250)">Cumulative share of income earned</text>    
<text x="450" y="465" dominant-baseline="central" transform="rotate(-90,250,250)">100%</text>

<!-- Other Labels --> 
<text x="250" y="230" dominant-baseline="central" transform="rotate(-45,250,250)">Line of Equality (45 Degree)</text>
<text style="font-size:22px;font-weight:bold;" x="390" y="170" id="text2397">A</text>
<text x="250" y="340" dominant-baseline="central" transform="rotate(-45,250,250)" >Lorenz Curve</text>
<text style="font-size:22px;font-weight:bold;" x="390" y="380">B</text>
</svg>
